<svg version="1.1" id="Layer_1" xmlns="http://www.w3.org/2000/svg" x="0px"
     y="0px"
     viewBox="0 0 240 240" enable-background="new 0 0 240 240" xml:space="preserve">
    <polygon fill="#FF4040" points="117.5,211 4.3,167.8 4.3,150.5 117.5,160.6 230.6,150.5 230.6,167.8 "/>
    <path fill="#AFA137" d="M117.5,193.6L4.3,150.5c0,0,7.5-2.9,8.9-3.4c6.7-2.5,13.8-4.6,20.3-7.4c13.5-6,28.3-9.8,43.1-10
	c8.5-0.1,16.4,2.5,24.7,1.2c9.6-1.6,18.8-5.2,28.4-7.1c17.4-3.3,34.3,1.2,50.4,7.6c16.5,6.5,32.6,12.3,49.2,18.6
	c0.5,0.2,0.9,0.3,1.4,0.5L117.5,193.6z"/>
    <g>
	<g>
		<path fill="#C6ADAC" d="M41.4,152.7c-1.4-31.4,30.4-48.3,53.9-61.2c20.5-11.2,46.1-25.8,40.8-53.1c-1.1-5.7-9.8-3.3-8.7,2.4
			c2.4,12.5-4.7,22-14.2,29.2c-11.2,8.5-24.1,14.5-36.3,21.4c-22.5,12.8-45.8,33-44.6,61.3C32.6,158.5,41.6,158.5,41.4,152.7
			L41.4,152.7z"/>
	</g>
</g>
    <g>
	<g>
		<path fill="#C6ADAC" d="M80.8,101.2c31.2,6.5,64.1-2.8,87.2-24.8c4.2-4-2.2-10.4-6.4-6.4C141,89.8,111.2,98.4,83.2,92.5
			C77.6,91.4,75.1,100,80.8,101.2L80.8,101.2z"/>
	</g>
</g>
    <g>
	<path fill="#68751C" d="M80.8,35.7c8.2,2,22.1-7.5,28.3-10.5c8-3.9,16.3-6.9,24.4-10.5c3.1-1.4,13.2-4.6,13.3-9.1
		c0.2-5.6-10.5-5.9-14-5.5C125.7,0.8,118.8,3,112,5c-7,2.1-13.8,4.9-20.3,8.4c-4.9,2.6-11.6,7.2-14.5,12c-1.8,2.9-1.7,7.2,1.1,9.2
		C79,35.1,79.8,35.5,80.8,35.7z"/>
        <path fill="#68751C" d="M131,20.5c1.4-0.8,2.8-1.5,4.2-2.2c11.6-5.5,25-10,38.2-11c11.5-0.9,24.2-3,35.6,0.1
		c5.9,1.6,12.4,7.3,9.3,12.8c-2.3,4.1-11.7,9.6-15.8,12.6c-15.1,10.7-36.2,15.4-55.5,16.4C133,50,110,42,122.8,26.9
		C124.9,24.3,127.9,22.3,131,20.5z"/>
        <path fill="#68751C" d="M208,33.1c3.2,0.1,6.9,0.9,8.4,3.8c1.2,2.4,0.3,5.3-1.4,7.3c-1.8,2-4.2,3.1-6.7,4.1
		c-12.4,5.2-25.7,8.3-39.1,9.2c-3.7,0.2-7.6,0.3-11.2-0.9c-3.6-1.2-6.8-3.9-7.8-7.5c-2.2-8.3,16-11,20.9-11.9
		c4.9-0.9,9.8-1.5,14.7-1.7C193.2,35,200.4,32.8,208,33.1z"/>
        <path fill="#68751C" d="M206.3,87.5c-4.9-12.1-34.4,1.2-41.1,5.5c-2.5,1.6-5.1,4-4.6,6.9c0.5,3.1,4.2,4.5,7.4,4.9
		C175.7,105.8,212,101.8,206.3,87.5z"/>
        <path fill="#68751C" d="M113.6,48.3c-1.2,8-12,16.8-19.2,19.3c-7,2.5-18.7-2.7-14.4-11.2c3.8-7.4,22.6-20.6,30.8-15.2
		C113.2,42.7,114,45.7,113.6,48.3z"/>
        <path fill="#68751C" d="M134.4,88.1c11.5,1.4,23.3-0.1,34.1-4.2c2.4-0.9,4.9-2.1,5.9-4.5c0.7-1.8,0.2-4-1.2-5.3s-3.6-1.7-5.3-0.9
		c-3.2-3.5-8.8-3.2-13.5-2.3c-7.4,1.5-14.7,4.2-21.4,7.7c-2.4,1.3-5.1,3.5-4.4,6.1C129.3,87,132,87.8,134.4,88.1z"/>
        <path fill="#68751C" d="M147.7,78.8c15.2,3.4,31.9-1,44.9-9.4c1.7-1.1,3.6-2.8,3.3-4.9c-0.4-2.5-3.6-3.3-6.2-3.2
		c-14.8,0.2-29.8,3.9-42.7,11.4c-1.5,0.8-3.1,2.2-2.7,3.8C144.8,77.9,146.4,78.5,147.7,78.8z"/>
        <g>
		<path fill="#68751C" d="M71.6,58.6c1.4-1.7,2.6-3.8,2-5.8c-2.8-11.1-17.9,3.3-21.5,6.6c-4.6,4.2-4.4,7.9,3.1,7.9
			C61.3,67.2,67.8,63.1,71.6,58.6z"/>
	</g>
</g>
</svg>
